<svg viewBox="14 8 1343 484" fill="currentColor" xmlns="http://www.w3.org/2000/svg">
<path d="M760 218C763.807 220.682 765.338 223.061 766.125 227.562C766.277 229.934 766.277 229.934 766 232C763.688 234.125 763.688 234.125 761 236C760.269 238.314 759.599 240.648 759 243C757.5 244.937 757.5 244.937 756 246C755.34 246 754.68 246 754 246C753.629 246.99 753.629 246.99 753.25 248C751.682 251.764 749.855 255.371 748 259C747.34 259 746.68 259 746 259C746.33 260.98 746.66 262.96 747 265C746.242 265.489 746.242 265.489 745.469 265.988C744.819 266.425 744.169 266.862 743.5 267.312C742.85 267.742 742.201 268.171 741.531 268.613C740.773 269.3 740.773 269.3 740 270C740 270.99 740 271.98 740 273C738.689 274.356 737.353 275.686 736 277C735.464 277.907 734.928 278.815 734.375 279.75C733.694 280.864 733.694 280.864 733 282C732.34 282 731.68 282 731 282C730.752 282.866 730.505 283.732 730.25 284.625C728.684 288.854 726.356 292.116 723.734 295.758C723.306 296.353 722.878 296.949 722.438 297.562C721.805 298.442 721.805 298.442 721.16 299.34C719.065 302.337 717.281 305.497 715.5 308.687C714 311 714 311 711 313C709.786 314.947 709.786 314.947 708.812 317.125C708.296 318.212 708.296 318.212 707.77 319.32C707.516 319.875 707.262 320.429 707 321C706.34 321 705.68 321 705 321C704.752 321.681 704.505 322.361 704.25 323.062C702.403 327.402 700.502 331.538 697.094 334.855C693.945 338.08 691.893 341.885 689.586 345.734C689.063 346.482 688.539 347.23 688 348C687.34 348 686.68 348 686 348C685.732 348.928 685.464 349.856 685.188 350.812C684 354 684 354 682.586 355.41C680.108 357.894 678.789 360.949 677.184 364.039C676 366 676 366 674 367C673.897 367.577 673.794 368.155 673.688 368.75C672.692 372.007 670.388 373.612 668 376C666.97 377.984 665.963 379.982 665 382C664.34 382.33 663.68 382.66 663 383C662.897 383.577 662.794 384.155 662.688 384.75C661.69 388.014 659.411 389.649 657 392C656.67 392.99 656.34 393.98 656 395C655.021 396.02 654.021 397.021 653 398C652.67 398.66 652.34 399.32 652 400C651.34 400 650.68 400 650 400C649.897 400.639 649.794 401.279 649.688 401.937C649.461 402.618 649.234 403.299 649 404C648.01 404.33 647.02 404.66 646 405C645.732 405.742 645.464 406.485 645.188 407.25C643.599 410.928 641.077 412.488 638 415C636.337 417.411 636.337 417.411 635 420C632.204 424.764 629.001 427.837 624.82 431.332C622.668 433.305 621.463 435.492 620 438C617.562 439.687 617.562 439.687 615 441C613.855 441.588 613.855 441.588 612.688 442.187C612.131 442.456 611.574 442.724 611 443C611 443.99 611 444.98 611 446C609.35 446 607.7 446 606 446C606 446.99 606 447.98 606 449C604.721 449.309 603.442 449.619 602.125 449.937C599.899 450.476 598.053 450.974 596 452C594.045 452.123 592.084 452.175 590.125 452.187C589.076 452.202 588.026 452.216 586.945 452.23C583.318 451.947 581.216 450.935 578.375 448.75C574.548 443.879 574.295 437.916 575 432C576.034 427.232 577.144 422.519 579 418C579.99 417.67 580.98 417.34 582 417C582.33 416.01 582.66 415.02 583 414C586.63 413.67 590.26 413.34 594 413C594.33 413.99 594.66 414.98 595 416C595.66 416 596.32 416 597 416C597.108 417.603 597.186 419.207 597.25 420.812C597.296 421.706 597.343 422.599 597.391 423.52C597 426 597 426 595.062 427.625C594.382 428.079 593.701 428.532 593 429C591.72 432.088 591.72 432.088 591 435C593.97 434.01 596.94 433.02 600 432C600 431.34 600 430.68 600 430C600.99 430 601.98 430 603 430C603 429.01 603 428.02 603 427C603.557 426.773 604.114 426.546 604.688 426.312C607.647 424.633 609.661 422.459 612 420C612.577 419.464 613.155 418.927 613.75 418.375C615.257 416.904 615.257 416.904 616 414C616.576 413.74 617.152 413.479 617.746 413.211C621.051 411.435 622.885 408.589 625.062 405.625C625.496 405.047 625.93 404.47 626.377 403.875C628.182 401.469 629.963 399.053 631.684 396.586C632.118 396.063 632.552 395.539 633 395C633.66 395 634.32 395 635 395C635 394.01 635 393.02 635 392C635.66 392 636.32 392 637 392C637.227 391.299 637.454 390.597 637.688 389.875C638.988 387.027 640.576 385.024 642.633 382.687C644.669 380.175 646.257 377.424 647.887 374.637C649 373 649 373 651 372C651.656 369.473 651.656 369.473 652 367C652.99 366.67 653.98 366.34 655 366C656.579 363.481 656.579 363.481 658 360.5C659.5 357.469 659.5 357.469 661 355C661.99 354.67 662.98 354.34 664 354C664.354 352.672 664.685 351.338 665 350C665.454 349.567 665.907 349.134 666.375 348.687C668.28 346.913 668.28 346.913 669.438 343.562C670.98 340.045 672.264 338.57 675 336C677.15 332.99 678.829 330.512 680 327C680.639 326.876 681.279 326.752 681.938 326.625C682.618 326.419 683.299 326.212 684 326C685.247 323.59 685.247 323.59 686 321C686.33 320.34 686.66 319.68 687 319C687.66 319 688.32 319 689 319C689.268 318.113 689.536 317.226 689.812 316.312C690.921 313.22 692.275 310.776 694 308C694.33 307.01 694.66 306.02 695 305C695.66 305 696.32 305 697 305C698.52 302.746 698.52 302.746 700 300C701.562 297.187 701.562 297.187 703 295C703.66 295 704.32 295 705 295C705.33 293.35 705.66 291.7 706 290C706.66 290 707.32 290 708 290C708.371 289.227 708.371 289.227 708.75 288.437C709.819 286.353 710.95 284.338 712.125 282.312C714.082 279.489 714.082 279.489 714 278C713.264 278.046 712.528 278.093 711.77 278.141C703.918 278.431 703.918 278.431 699.938 276.562C697.228 272.978 696.628 269.389 696 265C693.566 267.366 691.249 269.673 689.188 272.375C686.675 275.39 683.889 277.818 680.902 280.352C679.686 281.406 678.501 282.499 677.363 283.637C674.645 286.355 672.445 286.951 668.625 287.375C664.372 286.935 662.411 285.481 659 283C656.038 282.801 656.038 282.801 653.684 284.004C648.854 285.796 643.963 285.061 639 284C636.405 282.581 635.049 281.21 633 279C632.34 278.34 631.68 277.68 631 277C630.34 277 629.68 277 629 277C628.67 277.99 628.34 278.98 628 280C626.75 281.687 626.75 281.687 625 283C623.334 283.043 621.666 283.041 620 283C619.383 283.322 618.765 283.644 618.129 283.975C614.304 285.817 610.176 285.369 606 285.375C605.098 285.399 604.195 285.424 603.266 285.449C596.647 285.479 596.647 285.479 593.453 283.117C592.089 281.13 590.949 279.215 590 277C589.34 277.99 588.68 278.98 588 280C587.01 280.33 586.02 280.66 585 281C584.34 281.99 583.68 282.98 583 284C582.01 284.33 581.02 284.66 580 285C579.67 285.66 579.34 286.32 579 287C576.438 287.625 576.438 287.625 574 288C574 288.66 574 289.32 574 290C563.989 294.259 555.662 295.768 544.688 295.562C542.749 295.579 542.749 295.579 540.771 295.596C534.11 295.545 528.759 295.149 522.843 291.953C520.913 290.955 519.119 290.449 517 290C516.507 290.779 516.507 290.779 516.004 291.574C513.314 295.519 511.234 298.138 506.812 300.062C501.085 302.829 498.111 307.799 494.63 312.92C493.458 314.64 492.233 316.324 491 318C490.34 318 489.68 318 489 318C488.729 318.579 488.459 319.158 488.18 319.754C486.222 323.481 483.567 326.676 481 330C480.257 330.99 479.515 331.98 478.75 333C478.173 333.66 477.595 334.32 477 335C476.34 335 475.68 335 475 335C474.66 336.083 474.66 336.083 474.312 337.187C472.748 340.54 470.635 342.431 468 345C466.705 347.166 466.705 347.166 466 349C465.34 349 464.68 349 464 349C463.732 349.572 463.464 350.145 463.188 350.734C461.959 353.079 460.575 355.124 459 357.25C458.484 357.956 457.969 358.663 457.438 359.391C456.963 359.922 456.489 360.453 456 361C455.34 361 454.68 361 454 361C453.732 361.577 453.464 362.155 453.188 362.75C452 365 452 365 450.438 367C448.872 368.892 448.872 368.892 448.562 371.125C448.377 371.744 448.191 372.362 448 373C446.675 373.684 445.341 374.35 444 375C443.301 376.316 442.633 377.65 442 379C441.01 379.66 440.02 380.32 439 381C438.67 381.99 438.34 382.98 438 384C437.34 384.33 436.68 384.66 436 385C434.866 387.017 434.866 387.017 434 389C433.34 389 432.68 389 432 389C431.34 390.65 430.68 392.3 430 394C429.34 394 428.68 394 428 394C427.691 394.619 427.381 395.237 427.062 395.875C426.375 397.25 425.688 398.625 425 400C424.34 400 423.68 400 423 400C422.629 401.176 422.629 401.176 422.25 402.375C421 405 421 405 418.938 406C418.298 406.33 417.659 406.66 417 407C416.856 407.763 416.711 408.526 416.562 409.312C415.783 413.036 413.746 414.45 411 417C410.443 417.763 409.886 418.526 409.312 419.312C408.879 419.869 408.446 420.426 408 421C407.34 421 406.68 421 406 421C405.752 421.722 405.505 422.444 405.25 423.187C403.889 426.251 402.11 428.413 400 431C399.67 431.99 399.34 432.98 399 434C397.333 435.667 395.667 437.333 394 439C392.97 440.648 391.969 442.315 391 444C390.041 445.176 390.041 445.176 389.062 446.375C387.453 448.423 386.244 450.246 385 452.5C383.276 455.612 381.269 458.25 379 461C376.741 464.031 374.548 467.059 372.645 470.328C370.71 473.471 368.55 476.371 366.25 479.25C365.845 479.791 365.44 480.333 365.023 480.891C362.607 483.892 361.146 484.962 357.379 485.934C353.34 486.013 351.334 485.248 348 483C345.37 479.653 345.706 476.118 346 472C346.5 469.687 346.5 469.687 348 468C350.037 467.4 352.024 466.997 354.125 466.687C356.144 466.167 356.144 466.167 357.062 464.266C357.372 463.518 357.681 462.77 358 462C358.982 460.24 359.983 458.49 361 456.75C361.516 455.858 362.031 454.966 362.562 454.047C363.274 453.034 363.274 453.034 364 452C364.66 452 365.32 452 366 452C366.124 451.422 366.247 450.845 366.375 450.25C367.006 447.977 367.889 446.075 369 444C369.66 444 370.32 444 371 444C371 443.34 371 442.68 371 442C371.66 442 372.32 442 373 442C373.289 441.257 373.577 440.515 373.875 439.75C374.823 437.433 375.848 435.221 377 433C377.66 433 378.32 433 379 433C379.309 432.216 379.619 431.432 379.937 430.625C381 428 381 428 382 426C382.66 426 383.32 426 384 426C384.082 425.443 384.165 424.886 384.25 424.312C385.239 421.262 386.941 419.459 389 417C390.267 415.128 391.522 413.25 392.754 411.355C393.165 410.908 393.576 410.461 394 410C394.99 410 395.98 410 397 410C397.186 408.855 397.186 408.855 397.375 407.687C398 405 398 405 400 402C400.66 402 401.32 402 402 402C402.66 400.68 403.32 399.36 404 398C404.66 398 405.32 398 406 398C406.33 396.35 406.66 394.7 407 393C407.99 393 408.98 393 410 393C410.103 392.422 410.206 391.845 410.312 391.25C411.109 388.643 412.191 387.026 414 385C414.66 385 415.32 385 416 385C416.33 383.68 416.66 382.36 417 381C417.66 381 418.32 381 419 381C419.33 379.68 419.66 378.36 420 377C420.66 377 421.32 377 422 377C422.083 376.216 422.165 375.432 422.25 374.625C422.498 373.759 422.745 372.892 423 372C423.608 371.698 424.217 371.397 424.844 371.086C427.455 369.771 428.523 368.347 430.25 366C433.469 361.699 436.805 357.519 440.203 353.359C442.079 351.001 442.079 351.001 443.609 348.203C444.068 347.476 444.527 346.749 445 346C445.66 346 446.32 346 447 346C447.495 344.515 447.495 344.515 448 343C448.66 343 449.32 343 450 343C450.083 342.435 450.165 341.871 450.25 341.289C451.231 338.294 452.853 336.668 455 334.375C457.835 331.42 457.835 331.42 460 328C460.66 328 461.32 328 462 328C462.268 327.237 462.536 326.474 462.812 325.687C463.969 323.07 464.935 321.893 467 320C467.99 318.515 467.99 318.515 469 317C469.66 317 470.32 317 471 317C471 316.01 471 315.02 471 314C472.375 312.312 472.375 312.312 474 311C474.66 311 475.32 311 476 311C476 310.34 476 309.68 476 309C470.555 308.505 470.555 308.505 465 308C465 307.01 465 306.02 465 305C463.35 305 461.7 305 460 305C460 304.01 460 303.02 460 302C457.001 300.615 457.001 300.615 454.293 302.293C453.268 302.918 452.243 303.543 451.188 304.187C450.119 304.837 449.05 305.487 447.949 306.156C446.976 306.765 446.003 307.373 445 308C444.346 308.402 443.693 308.804 443.02 309.219C440.7 310.697 438.922 312.09 437.125 314.187C434.509 316.419 432.376 316.528 429.012 316.789C426.19 317.085 423.679 318.088 421 319C411.688 320.727 401.602 320.264 393.562 314.875C392.353 313.944 391.156 312.996 390 312C390.495 310.02 390.495 310.02 391 308C390.339 308.428 389.677 308.856 388.996 309.297C385.453 311.311 381.862 312.796 378.062 314.25C377.372 314.531 376.682 314.812 375.971 315.102C371.628 316.764 368.61 317.419 364 316C361.551 313.225 361.026 311.13 360.312 307.5C361 304 361 304 362.652 302.441C366.415 299.968 368.383 299 373 299C373.495 297.515 373.495 297.515 374 296C375.98 295.276 377.986 294.623 380 294C387.173 290.82 393.205 287.342 398 281C402.056 276.48 406.738 273.008 412 270C412.66 270 413.32 270 414 270C414.227 269.422 414.454 268.845 414.688 268.25C416.348 265.403 418.315 263.879 421 262C421.66 262 422.32 262 423 262C423 261.34 423 260.68 423 260C423.897 259.845 423.897 259.845 424.812 259.687C427.053 259.169 427.053 259.169 428.438 257.562C430.496 255.504 432.218 254.874 435 254C438.113 254.023 438.113 254.023 441.312 254.375C442.381 254.486 443.45 254.597 444.551 254.711C445.359 254.806 446.167 254.902 447 255C448.135 258.61 448.1 261.984 448.062 265.75C448.053 266.92 448.044 268.091 448.035 269.297C448.024 270.189 448.012 271.081 448 272C447.01 272 446.02 272 445 272C444.799 272.545 444.598 273.091 444.391 273.652C442.434 276.955 439.668 279.144 436.75 281.562C436.189 282.044 435.629 282.525 435.051 283.021C430.848 286.55 426.704 290 421 290C421 290.66 421 291.32 421 292C420.361 292.124 419.721 292.247 419.062 292.375C418.382 292.581 417.701 292.787 417 293C416.67 293.66 416.34 294.32 416 295C413.707 295.842 411.385 296.469 409.031 297.121C408.026 297.556 408.026 297.556 407 298C406.505 299.485 406.505 299.485 406 301C418.669 302.995 426.614 300.449 437 293C437.679 292.483 438.359 291.966 439.059 291.434C441.68 289.498 444.475 287.912 447.293 286.281C449.309 285.021 449.309 285.021 450 282C452.733 280.149 455.568 278.55 458.434 276.914C461.283 274.789 462.034 273.366 463 270C463.66 270 464.32 270 465 270C465 269.01 465 268.02 465 267C465.99 267 466.98 267 468 267C468 266.01 468 265.02 468 264C469.609 262.465 469.609 262.465 471.75 260.937C472.794 260.178 472.794 260.178 473.859 259.402C476 258 476 258 478.203 256.941C480.179 256.129 480.179 256.129 481 254C483.327 253.626 485.661 253.292 488 253C488.33 252.67 488.66 252.34 489 252C491.812 251.625 491.812 251.625 495 252C497.438 253.937 497.438 253.937 499 257C499.249 261.297 498.377 264.994 496.875 269C494.201 271.852 491.797 271.785 488 272C487.938 272.619 487.876 273.237 487.812 273.875C487.544 274.576 487.276 275.277 487 276C485.343 276.69 483.674 277.353 482 278C479.004 280.711 476.088 283.52 474 287C474.33 287.99 474.66 288.98 475 290C474.01 290 473.02 290 472 290C472.33 290.66 472.66 291.32 473 292C480.685 292.736 486.728 291.715 493 287C494.874 284.755 496.381 282.518 497.844 279.988C499 278 499 278 501 276C501.255 273.995 501.506 271.988 501.656 269.973C502 268 502 268 504 265C504.928 264.773 505.856 264.546 506.812 264.312C512.385 262.018 514.248 256.466 516.879 251.348C517.218 250.695 517.557 250.042 517.907 249.37C518.578 248.072 519.237 246.767 519.882 245.456C522.29 240.754 525.19 237.653 529 234C530.048 232.025 531.052 230.025 532 228C533.625 225.125 533.625 225.125 536 223C539.81 222.267 543.447 221.966 546.766 224.176C548.501 226.741 548.296 228.624 548.188 231.687C548.147 233.178 548.147 233.178 548.105 234.699C548.071 235.458 548.036 236.218 548 237C547.34 237.33 546.68 237.66 546 238C545.67 238.99 545.34 239.98 545 241C545.99 240.34 546.98 239.68 548 239C549.36 238.479 550.737 238.003 552.125 237.562C553.181 237.224 553.181 237.224 554.258 236.879C555.163 236.589 556.068 236.299 557 236C557.951 235.629 557.951 235.629 558.92 235.251C565.051 232.961 570.611 232.482 577.125 232.5C578.075 232.472 579.025 232.443 580.004 232.414C586.605 232.396 590.148 233.43 595 238C595 238.99 595 239.98 595 241C595.99 241.33 596.98 241.66 598 242C598.949 244.066 598.949 244.066 599.688 246.562C600.065 247.802 600.065 247.802 600.449 249.066C600.722 250.024 600.722 250.024 601 251C603.011 250.13 603.011 250.13 605 249C605.124 248.402 605.248 247.804 605.375 247.187C606.214 244.25 608.042 243.111 610.395 241.289C612.223 239.88 612.223 239.88 614.438 237.437C618.111 233.943 621.729 231.193 626.938 230.75C627.618 230.832 628.299 230.915 629 231C629 230.34 629 229.68 629 229C633.94 227.353 638.866 227.138 644 228C646.13 229.614 647.369 231.138 648.816 233.371C649.991 235.32 649.991 235.32 653 236C654.617 245.877 654.617 245.877 652.25 250.187C651.136 251.58 651.136 251.58 650 253C647.672 257.877 646.557 262.649 646 268C649.625 266.242 651.889 264.103 654.438 261.062C657.313 257.643 660.188 255.372 664 253C666.902 250.49 668.451 248.846 669 245C669.66 245.33 670.32 245.66 671 246C671.049 245.348 671.098 244.695 671.148 244.023C671.572 239.067 672.157 234.67 674 230C674.66 230 675.32 230 676 230C676.33 228.68 676.66 227.36 677 226C678.625 225.946 680.25 225.907 681.875 225.875C683.232 225.84 683.232 225.84 684.617 225.805C687 226 687 226 689 228C691.584 228.167 691.584 228.167 694 228C694 228.66 694 229.32 694 230C694.66 230 695.32 230 696 230C697.938 234.933 697.938 234.933 698 238C696.41 241.055 694.354 243.5 692 246C692.784 245.34 693.567 244.68 694.375 244C697 242 697 242 699 242C699.33 241.01 699.66 240.02 700 239C704.392 236.943 708.838 236.572 713.438 238.062C715.908 239.202 716.875 239.828 718.5 242.062C719.476 247.798 720.387 253.568 717 258.625C716.34 259.409 715.68 260.192 715 261C718.879 259.545 722.483 257.75 726.133 255.805C728 255 728 255 731 255C731.186 254.216 731.371 253.432 731.562 252.625C733.275 248.308 735.693 244.989 738.441 241.27C740.153 239.001 740.153 239.001 741 236C741.66 236 742.32 236 743 236C743 235.34 743 234.68 743 234C743.66 234 744.32 234 745 234C745.124 233.278 745.248 232.556 745.375 231.812C745.995 229.022 746.859 226.617 748 224C748.268 223.278 748.536 222.556 748.812 221.812C751.26 218.077 755.804 217.266 760 218ZM546 260C546 260.66 546 261.32 546 262C545.01 262.33 544.02 262.66 543 263C542.67 263.66 542.34 264.32 542 265C541.381 265.289 540.762 265.577 540.125 265.875C537.845 266.861 537.845 266.861 536.625 269.125C535 271 535 271 531.812 271.25C530.884 271.167 529.956 271.085 529 271C529 272.32 529 273.64 529 275C528.34 275.33 527.68 275.66 527 276C529.977 277.694 532.256 278.288 535.668 278.449C536.562 278.492 537.456 278.536 538.377 278.58C539.304 278.615 540.232 278.651 541.188 278.687C542.55 278.758 542.55 278.758 543.939 278.83C555.638 279.551 555.638 279.551 566 275C566 274.34 566 273.68 566 273C567.65 272.67 569.3 272.34 571 272C571.495 270.515 571.495 270.515 572 269C574.375 267.937 574.375 267.937 577 267C577.99 266.34 578.98 265.68 580 265C580 264.01 580 263.02 580 262C580.99 262 581.98 262 583 262C583 261.01 583 260.02 583 259C583.66 258.67 584.32 258.34 585 258C585.21 253.859 585.21 253.859 584 250C573.762 243.857 554.051 252.677 546 260ZM626 249C624.291 250.623 622.626 252.293 621 254C621 254.66 621 255.32 621 256C620.01 256.33 619.02 256.66 618 257C618 257.66 618 258.32 618 259C617.443 259.206 616.886 259.412 616.312 259.625C613.054 261.563 611.304 263.992 609 267C609 267.33 609 267.66 609 268C616.645 268 619.897 266.017 625.348 260.715C626.166 259.866 626.166 259.866 627 259C626.67 257.68 626.34 256.36 626 255C627.32 255 628.64 255 630 255C630 254.34 630 253.68 630 253C629.34 253 628.68 253 628 253C627.34 251.68 626.68 250.36 626 249Z"/>
<path d="M319 50C319 50.99 319 51.98 319 53C320.32 53 321.64 53 323 53C323.196 59.122 323.235 64.2165 321 70C320.835 71.155 320.67 72.31 320.5 73.5C320.018 76.8761 319.169 79.8052 318 83C317.34 83 316.68 83 316 83C315.917 83.9075 315.835 84.815 315.75 85.75C314.885 89.4984 314.132 90.7994 311 93C307.75 93.25 307.75 93.25 305 93C304.938 93.8869 304.876 94.7738 304.812 95.6875C303.612 104.14 299.423 112.285 295.906 120C295.025 121.944 294.196 123.905 293.375 125.875C292 129 292 129 290 132C291.779 131.983 291.779 131.983 293.594 131.965C322.539 131.77 322.539 131.77 327 134C329.331 134.308 331.662 134.509 334.004 134.719C336 135 336 135 337 136C338.347 136.231 339.704 136.412 341.062 136.562C342.362 136.707 343.661 136.851 345 137C345 137.66 345 138.32 345 139C346.502 139.073 346.502 139.073 348.035 139.148C349.378 139.224 350.72 139.299 352.062 139.375C353.373 139.445 354.684 139.514 356.035 139.586C359.932 139.993 363.255 140.879 367 142C370.114 142.663 373.246 143.228 376.375 143.812C388.682 146.202 400.935 148.925 412 155C412.679 155.161 413.359 155.322 414.059 155.488C416.863 156.227 418.157 157.827 420 160C420 160.66 420 161.32 420 162C420.577 162.083 421.155 162.165 421.75 162.25C424.617 163.206 425.918 164.851 428 167C428.99 167.33 429.98 167.66 431 168C431 168.99 431 169.98 431 171C432.32 171 433.64 171 435 171C435.712 172.933 436.423 174.867 437.125 176.805C438.032 179.225 438.032 179.225 439.812 182.188C441.622 187.998 440.216 193.141 439 199C438.809 199.956 438.618 200.913 438.422 201.898C438.283 202.592 438.143 203.285 438 204C437.34 204 436.68 204 436 204C435.752 204.846 435.505 205.691 435.25 206.562C433.181 212.252 430.528 216.884 426 221C422.451 224.453 422.451 224.453 419.375 228.312C418.921 228.869 418.468 229.426 418 230C417.01 230 416.02 230 415 230C414.67 230.99 414.34 231.98 414 233C412.017 234.033 410.017 235.034 408 236C407.67 236.66 407.34 237.32 407 238C405.68 238 404.36 238 403 238C403.33 238.99 403.66 239.98 404 241C403.031 241.206 402.061 241.412 401.062 241.625C397.965 242.508 395.736 243.752 393.125 245.625C388.124 249.143 382.754 251.595 377.204 254.108C373.749 255.678 370.425 257.296 367.164 259.242C364 261 364 261 361 261C361 261.66 361 262.32 361 263C360.136 263.276 359.273 263.552 358.383 263.836C354.081 265.316 349.967 267.144 345.805 268.977C343 270 343 270 339 270C339 270.66 339 271.32 339 272C337.68 272 336.36 272 335 272C335 272.66 335 273.32 335 274C319.688 279.936 319.688 279.936 313 281.625C308.936 282.652 305.559 284.129 301.875 286.098C299.444 287.267 296.933 287.861 294.309 288.449C282.766 291.203 270.925 295.063 260.25 300.25C255.63 302.408 251.05 302.789 246 303C246 303.66 246 304.32 246 305C245.228 305.171 244.456 305.343 243.661 305.519C240.168 306.298 236.678 307.086 233.188 307.875C231.973 308.144 230.758 308.414 229.506 308.691C228.342 308.956 227.179 309.22 225.98 309.492C224.37 309.854 224.37 309.854 222.727 310.222C219.815 310.903 219.815 310.903 217 313C214.992 313.379 214.992 313.379 212.875 313.562C209.225 313.567 209.225 313.567 208 315C206.592 315.331 205.173 315.613 203.75 315.875C192.017 318.019 192.017 318.019 180.688 321.625C176.651 323.13 173.269 323.619 169 324C169 324.99 169 325.98 169 327C167.688 328.438 167.688 328.438 166 330C164.98 331.318 163.98 332.652 163 334C161.143 336.553 159.231 338.775 157 341C155.981 342.655 154.982 344.323 154 346C152.438 348.312 152.438 348.312 151 350C150.34 350 149.68 350 149 350C148.897 350.598 148.794 351.196 148.688 351.812C148 354 148 354 146.605 355.332C144.667 357.346 143.776 359.333 142.625 361.875C140.602 366.061 138.488 368.869 135 372C132.654 374.702 130.758 377.366 129.062 380.5C125.835 386.303 119.983 392.009 114 395C111.667 395.04 109.333 395.043 107 395C106.34 393.35 105.68 391.7 105 390C104.34 390 103.68 390 103 390C102.946 387.75 102.907 385.5 102.875 383.25C102.852 381.997 102.829 380.744 102.805 379.453C103.096 374.302 103.096 374.302 105 372C107.172 371.707 107.172 371.707 109.75 371.812C113.176 371.634 114.514 371.493 116.957 369.016C118.455 366.727 119.783 364.448 121 362C121.33 361.34 121.66 360.68 122 360C122.66 360 123.32 360 124 360C123.67 358.35 123.34 356.7 123 355C123.99 355.33 124.98 355.66 126 356C126 355.01 126 354.02 126 353C126.99 353 127.98 353 129 353C129.103 352.402 129.206 351.804 129.312 351.188C130.107 348.661 131.153 347.847 133 346C133.289 345.216 133.577 344.433 133.875 343.625C135.298 340.304 137.398 338.472 140 336C140.66 335.01 141.32 334.02 142 333C142.66 333 143.32 333 144 333C143.67 332.34 143.34 331.68 143 331C138.38 331.33 133.76 331.66 129 332C129 332.66 129 333.32 129 334C128.105 334.121 127.211 334.242 126.289 334.367C113.82 335.972 113.82 335.972 101.688 339.125C98.9559 340.014 96.8509 340.168 94 340C94 340.66 94 341.32 94 342C88.5836 343.723 83.1922 344.682 77.5742 345.535C75.0232 345.871 75.0232 345.871 73 347C71.6279 347.154 70.252 347.274 68.875 347.375C64.8479 347.776 61.5257 348.772 57.7969 350.301C55.5729 351.166 53.3538 351.632 51 352C51 352.99 51 353.98 51 355C49.2259 357.049 47.7306 357.888 45.0469 358.3C42.6903 358.441 40.3605 358.458 38 358.438C37.193 358.457 36.3861 358.477 35.5547 358.498C31.7594 358.495 29.6451 358.444 26.4609 356.254C24.8236 353.728 24.5128 352.48 24.625 349.5C24.6379 348.747 24.6508 347.994 24.6641 347.219C25.0391 344.742 25.6285 343.096 27 341C30.0625 339.938 30.0625 339.938 31.9714 339.488C34.0458 338.989 36.0061 338.341 38.0195 337.637C43.4893 335.791 49.0389 334.322 54.625 332.875C55.6227 332.611 56.6205 332.346 57.6484 332.074C62.7635 330.741 67.7549 329.704 73 329C74.4318 328.568 75.852 328.094 77.25 327.562C81.6105 326.027 85.9444 325.228 90.4961 324.469C93.4404 323.918 96.1681 322.965 99 322C101.332 321.661 103.666 321.328 106 321C107.155 320.67 108.31 320.34 109.5 320C112.998 319 116.403 318.504 120 318C120.33 317.67 120.66 317.34 121 317C122.217 316.897 123.434 316.794 124.688 316.688C130.04 316.148 134.961 314.662 140.09 313.082C142.879 312.259 145.636 311.68 148.504 311.199C156.659 310.054 156.659 310.054 163.188 305.523C164.428 303.021 165.343 300.71 166 298C166.66 298 167.32 298 168 298C168.11 297.413 168.219 296.827 168.332 296.223C169.076 293.747 170.052 292.425 171.688 290.438C175.437 285.635 178.203 280.396 181 275C181.66 275 182.32 275 183 275C183 274.34 183 273.68 183 273C183.66 273 184.32 273 185 273C184.67 271.68 184.34 270.36 184 269C184.959 268.381 184.959 268.381 185.938 267.75C188.261 265.779 188.424 264.882 189 262C189.66 261.67 190.32 261.34 191 261C191.495 260.154 191.99 259.309 192.5 258.438C193.243 257.231 193.243 257.231 194 256C194.66 256 195.32 256 196 256C196.248 255.299 196.495 254.598 196.75 253.875C198.171 250.607 199.983 247.939 202 245C202.837 243.627 203.67 242.252 204.5 240.875C206.38 237.832 208.421 235.49 211 233C212.235 230.867 212.235 230.867 213 229C213.66 229 214.32 229 215 229C216.206 226.668 217.165 224.504 218 222C218.66 222 219.32 222 220 222C221.127 219.263 222.116 216.598 222.938 213.75C223.288 212.842 223.639 211.935 224 211C224.99 210.67 225.98 210.34 227 210C227.721 208.356 228.379 206.684 229 205C230.087 203.185 231.214 201.394 232.375 199.625C234.458 196.42 236.477 193.228 238.312 189.875C240 187 240 187 242 186C242.856 184.154 243.636 182.271 244.375 180.375C245.937 176.373 247.712 172.722 249.86 169.006C251.908 165.403 253.821 161.729 255.75 158.062C256.161 157.283 256.572 156.504 256.996 155.701C257.998 153.801 258.999 151.901 260 150C253.683 149.975 247.366 149.957 241.049 149.945C238.9 149.94 236.752 149.933 234.603 149.925C231.513 149.912 228.422 149.907 225.332 149.902C224.374 149.897 223.415 149.892 222.427 149.887C221.077 149.887 221.077 149.887 219.698 149.886C218.91 149.884 218.122 149.882 217.31 149.88C214.793 150.011 212.463 150.477 210 151C207.796 151.198 205.588 151.361 203.379 151.5C202.114 151.583 200.848 151.665 199.545 151.75C198.231 151.833 196.917 151.915 195.562 152C192.959 152.164 190.357 152.33 187.754 152.5C186.026 152.608 186.026 152.608 184.264 152.719C181.131 152.989 178.096 153.46 175 154C171.579 154.283 168.157 154.502 164.73 154.719C162.089 154.701 162.089 154.701 161 156C156.25 156.792 151.393 156.988 146.59 157.25C145.823 157.292 145.057 157.334 144.268 157.377C142.721 157.459 141.174 157.535 139.627 157.607C136.011 157.471 136.011 157.471 133 159C130.966 159.377 128.922 159.702 126.875 160C125.693 160.173 124.511 160.345 123.293 160.523C122.206 160.681 121.12 160.838 120 161C118.742 161.206 117.484 161.412 116.188 161.625C112.416 162.069 108.796 162.067 105 162C105 162.66 105 163.32 105 164C101.876 164.364 98.7507 164.714 95.625 165.062C94.7355 165.166 93.8461 165.27 92.9297 165.377C91.6535 165.517 91.6535 165.517 90.3516 165.66C89.566 165.749 88.7805 165.838 87.9712 165.93C86 166 86 166 84 165C84 165.66 84 166.32 84 167C79.2838 169.092 74.7226 169.736 69.6445 170.438C66.8575 170.779 66.8575 170.779 65 173C64.3523 175.571 64.3523 175.571 64 178C63.34 178 62.68 178 62 178C62 178.66 62 179.32 62 180C52.547 180.581 43.0973 181.104 33.625 181.188C32.9309 181.2 32.2368 181.213 31.5217 181.227C27.5684 181.234 24.5417 180.784 21 179C20 178 20 178 19.8672 175.312C19.8698 174.219 19.8723 173.126 19.875 172C19.8724 170.907 19.8698 169.814 19.8672 168.688C20 166 20 166 21 165C22.5778 164.783 22.5778 164.783 24.1875 164.562C27.8793 164.133 27.8793 164.133 30.8047 163.055C34.1635 161.946 37.4676 161.241 40.9375 160.562C44.7708 159.769 48.0225 158.99 51.625 157.438C55.7124 155.697 59.608 155.186 63.9844 154.543C67.582 153.895 70.8555 152.803 74.2578 151.488C76 151 76 151 78 152C78 151.34 78 150.68 78 150C78.8198 149.951 79.6397 149.902 80.4844 149.852C81.562 149.777 82.6397 149.702 83.75 149.625C85.351 149.521 85.351 149.521 86.9844 149.414C89.8499 149.021 91.5036 148.36 94 147C96.3272 146.626 98.6612 146.292 101 146C101.594 145.836 102.189 145.673 102.801 145.504C106.863 144.573 111.05 144.54 115.199 144.281C117.903 144.308 117.903 144.308 119 143C125.672 141.867 132.246 141.899 139 142C139 141.34 139 140.68 139 140C140.23 139.939 141.46 139.879 142.727 139.816C144.359 139.732 145.992 139.647 147.625 139.562C148.433 139.523 149.241 139.484 150.074 139.443C153.582 139.258 156.933 139.012 160.398 138.402C163 138 163 138 166 139C166 138.34 166 137.68 166 137C167.125 136.951 168.251 136.902 169.41 136.852C178.27 136.431 186.923 135.687 195.703 134.406C199.845 133.896 203.833 133.929 208 134C208.66 133.67 209.32 133.34 210 133C212.569 132.755 215.112 132.572 217.688 132.438C218.479 132.394 219.271 132.351 220.086 132.307C227.486 131.946 234.87 131.97 242.276 132.019C251.874 132.059 261.423 131.587 271 131C270.67 129.68 270.34 128.36 270 127C270.598 126.979 271.196 126.959 271.812 126.938C274.433 126.095 274.433 126.095 275.75 122.438C276.162 121.303 276.575 120.169 277 119C277.66 119 278.32 119 279 119C279.273 118.039 279.273 118.039 279.551 117.059C281.269 111.147 283.09 105.483 286.062 100.062C287.162 97.8226 287.162 97.8226 287.812 94.5C289.165 88.7333 291.666 83.4227 294 78C294.672 76.3355 295.341 74.6696 296 73C296.66 73 297.32 73 298 73C298.124 72.1337 298.248 71.2675 298.375 70.375C298.985 67.0828 299.769 64.1127 301 61C301.66 60.67 302.32 60.34 303 60C303.656 57.4727 303.656 57.4727 304 55C304.66 55 305.32 55 306 55C306 54.34 306 53.68 306 53C310.806 49.8282 313.186 48.2983 319 50ZM275.031 153.73C273.796 156.423 273.032 158.838 272.459 161.743C271.9 164.491 270.952 165.048 269 167C268.275 168.69 267.553 170.381 266.848 172.079C265.515 175.099 263.851 177.902 262.188 180.75C261.482 181.97 260.778 183.19 260.074 184.41C259.727 185.011 259.379 185.612 259.021 186.231C257.496 188.873 255.989 191.525 254.5 194.188C254.015 195.047 253.531 195.907 253.031 196.793C251.788 199.047 251.788 199.047 252 202C251.34 202 250.68 202 250 202C249.709 202.545 249.417 203.091 249.117 203.652C246.439 208.579 243.55 213.257 240.395 217.891C238.865 220.204 237.546 222.609 236.211 225.039C233.937 228.721 231.237 232.113 228.609 235.547C226.726 237.929 226.726 237.929 227 241C226.01 241.33 225.02 241.66 224 242C222.661 243.457 222.661 243.457 221.5 245.25C221.064 245.887 220.629 246.524 220.18 247.18C219.289 248.554 218.445 249.958 217.625 251.375C215.568 254.697 213.163 257.674 210.719 260.719C208.97 262.955 208.97 262.955 207.602 265.348C206.329 267.456 205.023 269.372 203.555 271.34C203.118 271.928 202.681 272.517 202.23 273.123C201.326 274.334 200.414 275.54 199.496 276.74C196.664 280.585 195.79 283.239 195 288C193.102 289.137 193.102 289.137 191 290C189.531 291.754 189.531 291.754 188.375 293.812C187.97 294.479 187.565 295.145 187.148 295.832C185.912 298.165 184.938 300.534 184 303C190.614 302.143 196.867 301.318 203.035 298.723C206.169 297.57 209.41 297.068 212.688 296.469C215.167 296.017 215.167 296.017 218.125 294.938C220.575 294.139 222.471 293.801 225 293.562C228.81 293.167 231.662 291.919 235 290C235 289.34 235 288.68 235 288C235.577 288.206 236.155 288.412 236.75 288.625C239.62 289.103 240.466 288.375 243 287C246.968 285.73 250.835 284.843 254.938 284.125C258.192 283.501 260.796 282.734 263.688 281.125C268.163 278.637 273.025 277.584 277.985 276.483C280.12 276.005 280.12 276.005 283 275C283.495 273.515 283.495 273.515 284 272C284.949 272.206 285.897 272.412 286.875 272.625C287.906 272.749 288.938 272.873 290 273C290.66 272.34 291.32 271.68 292 271C293.988 270.602 295.989 270.262 298 270C298 269.34 298 268.68 298 268C299.258 267.938 300.516 267.876 301.812 267.812C307.791 267.163 312.665 264.635 318 262C321.255 260.495 324.334 259.13 327.875 258.438C328.927 258.221 328.927 258.221 330 258C330.33 257.34 330.66 256.68 331 256C332.969 255.543 332.969 255.543 335.5 255.188C340.309 254.328 343.854 252.677 348.016 250.176C350.259 248.847 352.545 247.871 355 247C355 246.34 355 245.68 355 245C356.052 244.711 357.104 244.423 358.188 244.125C362.699 242.824 362.699 242.824 367 241C367.33 240.01 367.66 239.02 368 238C369.75 237.445 369.75 237.445 372 237.125C380.325 235.556 386.964 230.451 393.75 225.625C396.784 223.484 399.788 221.499 403.062 219.75C406.273 218.271 406.273 218.271 407 215C407.99 214.67 408.98 214.34 410 214C410 213.34 410 212.68 410 212C411.65 211.34 413.3 210.68 415 210C414.67 209.01 414.34 208.02 414 207C414.99 206.67 415.98 206.34 417 206C421.46 201.262 424.176 196.128 424.188 189.562C424.126 188.387 424.064 187.211 424 186C423.34 186 422.68 186 422 186C421.897 185.361 421.794 184.721 421.688 184.062C421.461 183.382 421.234 182.701 421 182C420.01 181.67 419.02 181.34 418 181C417.67 180.01 417.34 179.02 417 178C416.175 177.67 415.35 177.34 414.5 177C413.675 176.67 412.85 176.34 412 176C411.67 175.01 411.34 174.02 411 173C398.683 164.247 380.514 161.304 365.887 158.613C363 158 363 158 362 157C359.861 156.627 357.713 156.301 355.562 156C349.217 155.108 349.217 155.108 347 154C344.669 153.692 342.338 153.491 339.996 153.281C338 153 338 153 337 152C335.659 151.786 334.309 151.63 332.957 151.5C332.13 151.417 331.303 151.335 330.451 151.25C329.58 151.167 328.71 151.085 327.812 151C326.111 150.835 324.409 150.668 322.707 150.5C321.949 150.428 321.191 150.356 320.409 150.281C318.659 150.077 316.916 149.806 315.18 149.497C309.415 148.596 303.603 148.501 297.778 148.375C296.259 148.333 294.74 148.272 293.222 148.191C282.646 147.331 282.646 147.331 275.031 153.73Z"/>
<path d="M1146 13.6875C1146.69 13.6584 1147.37 13.6294 1148.08 13.5996C1153.21 13.5359 1156.12 14.6713 1160 18C1163.75 24.6084 1161.73 33.8419 1161 41C1160.97 41.7321 1160.94 42.4643 1160.91 43.2187C1160.54 50.0608 1156.94 55.949 1154 62C1153.16 63.9148 1152.33 65.8313 1151.5 67.75C1149.16 72.8975 1146.3 77.4179 1143 82C1142.04 83.3477 1142.04 83.3477 1141.05 84.7226C1137.53 89.5965 1133.95 94.4178 1130.31 99.207C1129.05 100.932 1127.89 102.695 1126.75 104.5C1126.17 105.325 1125.6 106.15 1125 107C1124.34 107 1123.68 107 1123 107C1122.69 107.619 1122.38 108.237 1122.06 108.875C1121.38 110.25 1120.69 111.625 1120 113C1119.34 113 1118.68 113 1118 113C1118 113.99 1118 114.98 1118 116C1116.64 117.437 1116.64 117.437 1114.69 119C1109.99 122.903 1105.82 127.231 1101.61 131.644C1099.06 133.945 1097.14 134.784 1094 136C1093.67 136.99 1093.34 137.98 1093 139C1089.56 142 1089.56 142 1087 142C1087 142.66 1087 143.32 1087 144C1084.83 145.592 1082.55 146.957 1080.26 148.367C1077.95 150.038 1076.64 151.693 1075 154C1073.68 154.699 1072.35 155.367 1071 156C1070.55 156.454 1070.09 156.907 1069.62 157.375C1068 159 1068 159 1064.88 161.062C1061.95 162.691 1061.95 162.691 1061 165C1060.01 165 1059.02 165 1058 165C1058 165.99 1058 166.98 1058 168C1056.54 169.387 1056.54 169.387 1054.62 170.687C1054 171.124 1053.37 171.561 1052.73 172.012C1051 173 1051 173 1049 173C1049 173.66 1049 174.32 1049 175C1047.24 176.586 1047.24 176.586 1044.88 178.375C1044.06 178.996 1043.24 179.618 1042.39 180.258C1040.49 181.64 1038.59 182.969 1036.62 184.25C1034.09 185.817 1034.09 185.817 1032.55 187.457C1030.98 189.017 1029.39 190.197 1027.56 191.437C1024.75 193.403 1022.39 195.524 1020 198C1019.34 198.33 1018.68 198.66 1018 199C1020.61 201.61 1021.99 201.361 1025.63 201.598C1026.75 201.677 1027.86 201.756 1029.01 201.838C1030.18 201.912 1031.36 201.986 1032.56 202.062C1034.88 202.216 1037.19 202.373 1039.5 202.535C1041.05 202.634 1041.05 202.634 1042.62 202.735C1045 203 1045 203 1046 204C1048.48 204.211 1050.95 204.376 1053.44 204.5C1060.73 204.866 1060.73 204.866 1063 206C1065.42 206.324 1067.83 206.609 1070.25 206.875C1073.17 207.235 1076.08 207.616 1079 208C1080.23 208.159 1081.45 208.317 1082.71 208.48C1092.52 210.124 1101.72 214.064 1107.7 222.355C1110.69 228.796 1110.93 236.037 1110 243C1108.25 246.5 1108.25 246.5 1106 249C1105.42 249.804 1104.85 250.609 1104.25 251.437C1098.69 257.771 1091.78 262.838 1085.22 268.082C1082.94 269.806 1082.94 269.806 1082 272C1081.34 272 1080.68 272 1080 272C1080 272.66 1080 273.32 1080 274C1079.4 274.326 1078.79 274.652 1078.17 274.988C1077.37 275.425 1076.57 275.862 1075.75 276.312C1074.96 276.742 1074.17 277.171 1073.36 277.613C1071.1 278.942 1069.09 280.427 1067 282C1065.54 282.859 1064.06 283.692 1062.56 284.5C1061.78 284.929 1061 285.358 1060.19 285.801C1059.47 286.196 1058.75 286.592 1058 287C1054.32 288.863 1054.32 288.863 1052 292C1050.1 292.712 1048.2 293.418 1046.29 294.098C1043.21 295.311 1040.42 296.9 1037.55 298.543C1027.51 304.276 1017.54 309.625 1006.52 313.152C1003.47 314.178 1000.49 315.334 997.5 316.5C995.333 317.333 993.167 318.167 991 319C990.147 319.338 989.293 319.675 988.414 320.023C983.63 321.803 980.033 322.678 975 321C972.446 318.382 971.011 316.573 970.984 312.824C971.221 310.868 971.601 308.93 972 307C978.551 304.051 984.696 301.532 991.844 300.555C994.107 300.121 994.107 300.121 995.984 298.488C998.356 296.737 999.839 296.526 1002.75 296.312C1003.95 296.214 1003.95 296.214 1005.17 296.113C1005.78 296.076 1006.38 296.038 1007 296C1007 295.34 1007 294.68 1007 294C1007.97 293.608 1008.94 293.216 1009.94 292.812C1013.78 291.186 1017.31 289.14 1020.89 286.988C1023 286 1023 286 1027 286C1027.33 285.01 1027.66 284.02 1028 283C1029.99 282.318 1032 281.656 1034 281C1038.75 278.656 1043.43 276.265 1047.56 272.937C1050.69 270.449 1054.08 268.923 1057.7 267.246C1059.93 266.039 1061.24 264.791 1063 263C1063.99 262.67 1064.98 262.34 1066 262C1066.33 261.34 1066.66 260.68 1067 260C1069.56 259.375 1069.56 259.375 1072 259C1072.33 258.01 1072.66 257.02 1073 256C1074.88 253.812 1074.88 253.812 1077 252C1077.99 252 1078.98 252 1080 252C1080 251.34 1080 250.68 1080 250C1081.57 248.449 1081.57 248.449 1083.69 246.687C1084.41 246.062 1085.14 245.437 1085.88 244.793C1087.59 243.344 1089.33 241.918 1091.06 240.5C1093.36 238.049 1093.36 238.049 1093.06 234.375C1092.27 231.052 1092.27 231.052 1090.38 229.187C1084.15 226.075 1077.52 225.406 1070.7 224.465C1068 224 1068 224 1067 223C1064.95 222.783 1062.9 222.628 1060.85 222.5C1059.6 222.417 1058.35 222.335 1057.06 222.25C1055.73 222.166 1054.39 222.083 1053.06 222C1050.47 221.837 1047.88 221.671 1045.29 221.5C1044.13 221.428 1042.97 221.356 1041.78 221.281C1039 221 1039 221 1037 220C1033.56 219.736 1030.12 219.555 1026.68 219.394C1021.1 219.101 1021.1 219.101 1020 218C1017.42 217.622 1014.84 217.292 1012.25 217C1004.39 216.095 1004.39 216.095 1001.14 215.297C1000.08 215.15 1000.08 215.15 999 215C996.417 217.25 996.417 217.25 994 220C993.22 220.465 992.44 220.931 991.637 221.41C987.984 223.613 985.097 226.456 981.988 229.355C980 231 980 231 978 231C978 231.66 978 232.32 978 233C976.562 234.237 975.118 235.468 973.637 236.652C971.818 238.106 971.818 238.106 969.625 240.375C967.404 242.596 965.151 244.718 962.813 246.812C961.801 247.719 961.801 247.719 960.77 248.644C959 250 959 250 957 250C956.67 250.99 956.34 251.98 956 253C955.34 253 954.68 253 954 253C953.67 253.99 953.34 254.98 953 256C951.349 257.026 949.68 258.023 948 259C947.278 259.722 946.556 260.444 945.813 261.187C945.214 261.786 944.616 262.384 944 263C943.34 263 942.68 263 942 263C942 263.99 942 264.98 942 266C940.426 267.613 940.426 267.613 938.313 269.312C935.675 271.5 933.426 273.569 931.375 276.312C928.672 279.371 926.809 279.815 923 281C922.299 282.315 921.635 283.651 921 285C919.041 286.393 917.036 287.722 915 289C914.093 289.742 913.185 290.485 912.25 291.25C910 293 910 293 908 293C908 293.66 908 294.32 908 295C902.524 300 902.524 300 900 300C899.67 300.99 899.34 301.98 899 303C896.438 304.187 896.438 304.187 894 305C894 305.99 894 306.98 894 308C892.68 308 891.36 308 890 308C890 308.99 890 309.98 890 311C888.359 312.041 886.686 313.032 885 314C883.135 315.673 881.304 317.386 879.5 319.125C874.312 324.025 868.852 328.088 862.91 332.027C859.963 333.962 859.963 333.962 857.246 336.254C855 338 855 338 853 338C853 338.66 853 339.32 853 340C850.699 342.921 849.42 343.903 845.75 344.75C844.843 344.832 843.935 344.915 843 345C843 345.66 843 346.32 843 347C838.615 350 838.615 350 836 350C835.67 350.99 835.34 351.98 835 353C833.223 354.387 833.223 354.387 831.063 355.687C830.352 356.124 829.642 356.561 828.91 357.012C827 358 827 358 825 358C825 358.66 825 359.32 825 360C824.01 360 823.02 360 822 360C822 360.99 822 361.98 822 363C821.196 363.268 820.391 363.536 819.563 363.812C818.717 364.204 817.871 364.596 817 365C816.67 365.99 816.34 366.98 816 368C814.397 368.682 812.789 369.356 811.164 369.984C807.599 371.658 804.553 374.053 801.375 376.359C799 378 799 378 795.438 379.75C792.675 380.807 792.675 380.807 792 384C791.299 384.227 790.598 384.454 789.875 384.687C786.754 386.112 785.75 387.314 783.625 389.937C780.332 393.912 777.81 395.276 773 397C771.654 397.982 770.316 398.977 769 400C768.34 400 767.68 400 767 400C767 400.66 767 401.32 767 402C765.35 402.33 763.7 402.66 762 403C762 403.66 762 404.32 762 405C760.504 406.219 760.504 406.219 758.563 407.5C755.775 409.286 755.775 409.286 754 412C747.68 414.948 739.923 417.002 733.063 415.25C731 414 731 414 729 411C728.097 406.5 728.062 402.562 730.461 398.566C732.215 396.491 733.842 394.654 736 393C736.99 393 737.98 393 739 393C739.33 392.01 739.66 391.02 740 390C743.444 387 743.444 387 746 387C746 386.34 746 385.68 746 385C748.313 382.375 748.313 382.375 751 380C751.99 380 752.98 380 754 380C754 379.34 754 378.68 754 378C756.906 375.958 758.401 375 762 375C762.33 374.01 762.66 373.02 763 372C767.285 368.494 770.691 368.494 776 369C778.5 370.5 778.5 370.5 780 372C780.33 371.01 780.66 370.02 781 369C783.751 365.659 785.694 364.478 790 364C790 363.34 790 362.68 790 362C791.176 361.598 791.176 361.598 792.375 361.187C795.281 360.152 795.281 360.152 797 357C798.664 356.327 800.331 355.661 802 355C804.037 353.572 806.036 352.088 808 350.562C810.857 348.351 813.626 346.224 816.727 344.367C819.178 343.024 819.178 343.024 821.375 340.562C823.777 338.218 825.994 336.796 828.926 335.219C833.522 332.518 837.712 329.157 842 326C843.849 324.659 845.702 323.325 847.563 322C848.771 321.134 848.771 321.134 850.004 320.25C852 319 852 319 854 319C854 318.01 854 317.02 854 316C854.888 315.563 854.888 315.563 855.793 315.117C861.153 312.337 864.33 309.75 868 305C868.99 304.67 869.98 304.34 871 304C871.66 303.01 872.32 302.02 873 301C873.99 301 874.98 301 876 301C876.249 300.403 876.498 299.806 876.754 299.191C878.183 296.678 879.58 295.584 881.938 293.937C884.534 292.108 886.789 290.277 889 288C893.49 284.193 898.04 280.47 902.75 276.937C905.243 275.126 905.243 275.126 906 272C907.674 271.33 909.35 270.663 911.031 270.012C914.048 268.461 916.073 266.151 918.375 263.699C920.413 261.568 922.688 259.825 925 258C925.763 257.237 926.526 256.474 927.313 255.687C929.5 253.5 931.714 251.505 934.063 249.5C936.423 247.467 938.291 245.636 940.25 243.187C942.072 240.91 943.433 240.239 946 239C946.33 238.01 946.66 237.02 947 236C948.658 234.986 950.327 233.989 952 233C952.866 232.113 953.733 231.226 954.625 230.312C957 228 957 228 960 228C960.062 227.216 960.124 226.432 960.188 225.625C960.456 224.759 960.724 223.892 961 223C962.64 222.271 964.313 221.613 966 221C967.714 219.382 969.371 217.703 971 216C973.971 213.3 976.983 210.648 980 208C978.68 207.67 977.36 207.34 976 207C975.876 206.361 975.753 205.721 975.625 205.062C975.419 204.382 975.213 203.701 975 203C974.34 202.67 973.68 202.34 973 202C973 201.01 973 200.02 973 199C972.01 198.67 971.02 198.34 970 198C965.69 190.019 965.501 180.419 967.902 171.738C968.833 169.417 969.815 167.201 971 165C971.66 165 972.32 165 973 165C973.369 163.674 973.369 163.674 973.746 162.32C975.073 158.808 976.622 156.701 979.063 153.875C981.666 150.852 983.153 148.87 984 145C985.625 143.292 987.292 141.624 989 140C989.66 139.01 990.32 138.02 991 137C991.66 137 992.32 137 993 137C993.083 136.443 993.165 135.886 993.25 135.312C994.239 132.263 995.848 130.348 998 128C998.66 128 999.32 128 1000 128C1000.33 126.68 1000.66 125.36 1001 124C1001.66 124 1002.32 124 1003 124C1003.23 123.464 1003.45 122.927 1003.69 122.375C1005.46 119.175 1007.54 116.71 1010 114C1010.66 114 1011.32 114 1012 114C1012.34 113.165 1012.34 113.165 1012.69 112.312C1014.35 109.381 1016.63 107.374 1019 105C1019 104.34 1019 103.68 1019 103C1020.1 102.346 1020.1 102.346 1021.22 101.68C1024.29 99.8269 1026.16 97.8309 1028.5 95.125C1033.31 89.6227 1033.31 89.6227 1035.88 87.1875C1038.09 85.0715 1038.09 85.0715 1039.56 82.375C1041.1 79.8298 1042.48 78.5458 1045 77C1045.66 77 1046.32 77 1047 77C1047.33 76.01 1047.66 75.02 1048 74C1049.64 72.6336 1051.31 71.305 1053 70C1055.26 67.7953 1057.47 65.5484 1059.66 63.2656C1063.2 59.6197 1066.67 56.727 1071 54C1074.55 51.4642 1074.55 51.4642 1077 48C1077.99 48 1078.98 48 1080 48C1080 47.34 1080 46.68 1080 46C1082.19 44.5625 1082.19 44.5625 1085 43C1088.65 41.1298 1088.65 41.1298 1091 38C1092.87 37.0833 1094.74 36.1698 1096.61 35.2734C1099.28 33.849 1101.67 32.2003 1104.12 30.4375C1113.1 24 1113.1 24 1117 24C1117 23.34 1117 22.68 1117 22C1119.37 20.8447 1121.75 19.7007 1124.12 18.5625C1124.79 18.237 1125.46 17.9115 1126.14 17.5761C1132.7 14.4568 1138.76 13.7896 1146 13.6875ZM1130 35C1128.68 35.3678 1127.34 35.712 1126 36C1125.67 36.66 1125.34 37.32 1125 38C1123.4 38.9648 1123.4 38.9648 1121.38 39.9375C1120.66 40.2855 1119.94 40.6335 1119.2 40.9921C1117.2 41.9103 1115.17 42.7444 1113.12 43.5625C1109.77 44.7741 1109.77 44.7741 1108 48C1107.34 48 1106.68 48 1106 48C1106 48.66 1106 49.32 1106 50C1105.2 50.2887 1104.39 50.5775 1103.56 50.875C1100.87 51.7326 1100.87 51.7326 1100 54C1097.94 54.625 1097.94 54.625 1096 55C1096 55.66 1096 56.32 1096 57C1095.34 57.2075 1094.69 57.415 1094.01 57.6289C1089.86 59.5198 1086.48 62.1744 1082.88 64.9375C1082.16 65.4756 1081.44 66.0138 1080.71 66.5683C1076.91 69.4207 1076.91 69.4207 1073.4 72.6154C1072 74 1072 74 1070 75C1069.67 75.99 1069.34 76.98 1069 78C1067 79.3333 1065 80.6666 1063 82C1062.67 82.99 1062.34 83.98 1062 85C1061.34 85 1060.68 85 1060 85C1059.67 86.32 1059.34 87.64 1059 89C1058.01 89 1057.02 89 1056 89C1053.6 90.9382 1053 91.9939 1052 95C1051.03 95.6187 1050.06 96.2375 1049.06 96.875C1045.82 99.1241 1045.03 100.285 1044 104C1043.01 104 1042.02 104 1041 104C1040.5 105.485 1040.5 105.485 1040 107C1038.48 108.43 1038.48 108.43 1036.62 109.875C1033.65 112.325 1031.85 114.582 1030 118C1029 119 1028 120 1027 121C1027 121.66 1027 122.32 1027 123C1026.44 123.227 1025.89 123.454 1025.31 123.687C1022.34 125.375 1020.28 127.467 1018 130C1018 130.66 1018 131.32 1018 132C1017.04 132.402 1017.04 132.402 1016.06 132.812C1013.67 133.887 1013.67 133.887 1013 137C1012.18 137.804 1011.35 138.609 1010.5 139.437C1008.16 141.837 1007.36 142.771 1007 146C1006.34 146 1005.68 146 1005 146C1003.31 147.271 1003.31 147.271 1002 149C1002 149.99 1002 150.98 1002 152C1001.34 152 1000.68 152 1000 152C998.634 153.718 998.634 153.718 997.375 155.875C996.706 156.954 996.706 156.954 996.023 158.055C994.845 159.929 994.845 159.929 995 162C994.34 162 993.68 162 993 162C993 162.99 993 163.98 993 165C992.01 165.33 991.02 165.66 990 166C988.612 167.987 988.612 167.987 987.438 170.375C986.046 173.036 984.671 175.494 983 178C982.759 180.057 982.759 180.057 982.875 182.187C982.916 183.446 982.958 184.704 983 186C983.66 186 984.32 186 985 186C984.917 186.763 984.835 187.526 984.75 188.312C984.749 191.028 984.749 191.028 986.438 192.75C990.166 194.569 993.896 194.746 998 195C998.33 194.01 998.66 193.02 999 192C1000.33 191.657 1001.66 191.324 1003 191C1003.66 190.01 1004.32 189.02 1005 188C1007.12 186.812 1007.12 186.812 1009 186C1009 185.34 1009 184.68 1009 184C1009.99 184 1010.98 184 1012 184C1013.73 182.687 1013.73 182.687 1015 181C1015 180.34 1015 179.68 1015 179C1015.6 178.711 1016.2 178.422 1016.81 178.125C1019.19 176.953 1019.19 176.953 1022 175C1022 174.34 1022 173.68 1022 173C1023.11 172.598 1023.11 172.598 1024.25 172.187C1026.89 171.047 1028.86 169.906 1031 168C1031 167.34 1031 166.68 1031 166C1031.99 166 1032.98 166 1034 166C1034 165.01 1034 164.02 1034 163C1035.65 163 1037.3 163 1039 163C1039.25 162.216 1039.5 161.432 1039.75 160.625C1041.2 157.585 1041.94 157.17 1045 156C1048.82 154.399 1051.23 152.067 1054 149C1054.5 147.515 1054.5 147.515 1055 146C1055.74 145.711 1056.49 145.422 1057.25 145.125C1060.69 143.717 1062.57 141.779 1065 139C1065 138.34 1065 137.68 1065 137C1065.78 136.897 1066.57 136.794 1067.38 136.687C1070.33 136.224 1070.33 136.224 1072 133C1073.66 131.981 1075.32 130.982 1077 130C1077.5 129.505 1077.99 129.01 1078.5 128.5C1080.44 126.556 1082.62 125.367 1085 124C1085.99 123.34 1086.98 122.68 1088 122C1088 121.34 1088 120.68 1088 120C1089.65 119.34 1091.3 118.68 1093 118C1093 117.34 1093 116.68 1093 116C1093.99 115.67 1094.98 115.34 1096 115C1096.31 114.196 1096.62 113.391 1096.94 112.562C1098.24 109.429 1099.01 109.365 1102 108C1104.77 105.646 1104.77 105.646 1107 103C1107 102.01 1107 101.02 1107 100C1107.66 100 1108.32 100 1109 100C1109 99.01 1109 98.02 1109 97C1109.99 97 1110.98 97 1112 97C1112.33 96.01 1112.66 95.02 1113 94C1113.82 93.1956 1114.65 92.3912 1115.5 91.5625C1117.98 89.0218 1118.3 88.2511 1119 85C1119.99 84.67 1120.98 84.34 1122 84C1122.33 83.01 1122.66 82.02 1123 81C1123.66 80.67 1124.32 80.34 1125 80C1125.33 79.01 1125.66 78.02 1126 77C1126.66 76.67 1127.32 76.34 1128 76C1128.66 73.4726 1128.66 73.4726 1129 71C1129.99 70.67 1130.98 70.34 1132 70C1132 68.35 1132 66.7 1132 65C1132.99 64.67 1133.98 64.34 1135 64C1135 63.01 1135 62.02 1135 61C1135.99 60.67 1136.98 60.34 1138 60C1139.15 57.9849 1139.15 57.9849 1140 55.5C1140.34 54.6028 1140.67 53.7056 1141.02 52.7812C1142.19 49.4719 1143.32 46.1548 1144.39 42.8125C1145 41 1145 41 1146 39C1146.07 37.4597 1146.08 35.9166 1146.06 34.375C1146.05 33.5577 1146.04 32.7404 1146.04 31.8984C1146.02 31.2719 1146.01 30.6454 1146 30C1139.4 30 1135.04 30.3936 1130 35Z"/>
<path d="M1236.25 185.313C1238.56 187.542 1238.97 189.31 1239.1 192.48C1239.08 193.82 1239.08 193.82 1239.06 195.188C1239.05 196.089 1239.04 196.99 1239.04 197.918C1239.02 198.949 1239.02 198.949 1239 200C1240.14 198.515 1240.14 198.515 1241.31 197C1242.61 195.313 1242.61 195.313 1244 194C1244.99 194 1245.98 194 1247 194C1247 193.34 1247 192.68 1247 192C1248.65 191.67 1250.3 191.34 1252 191C1252 190.34 1252 189.68 1252 189C1256.12 187.001 1259.44 186.502 1264 187C1266.38 188.313 1266.38 188.313 1268 191C1270.38 201.658 1269.56 214.089 1265 224C1265.7 223.783 1266.4 223.567 1267.12 223.344C1268.03 223.065 1268.94 222.787 1269.88 222.5C1270.78 222.222 1271.68 221.943 1272.62 221.656C1275 221 1275 221 1277 221C1277.33 220.34 1277.66 219.68 1278 219C1279.05 218.711 1280.1 218.423 1281.19 218.125C1285.13 216.96 1287.65 215.333 1291 213C1294.79 211.106 1297.77 210.55 1302 211C1304.31 211.938 1304.31 211.938 1306 214C1307.11 217.101 1307.5 219.734 1307 223C1303.67 227.83 1297.41 231.001 1292 233C1291.01 233 1290.02 233 1289 233C1288.67 233.957 1288.67 233.957 1288.33 234.934C1287 237 1287 237 1284.64 237.723C1283.66 237.835 1282.69 237.947 1281.69 238.062C1277.13 238.669 1272.77 239.497 1268.31 240.625C1261.93 242.122 1256.43 242.95 1250.06 241.188C1246.54 237.456 1246.22 232.999 1246 228C1246.39 224.253 1247.08 220.652 1248 217C1248.66 217 1249.32 217 1250 217C1250 216.01 1250 215.02 1250 214C1249.46 214.494 1248.91 214.987 1248.36 215.496C1247.28 216.457 1247.28 216.457 1246.19 217.438C1245.48 218.076 1244.77 218.714 1244.04 219.371C1242 221 1242 221 1239 222C1238.67 222.66 1238.34 223.32 1238 224C1237.51 224.99 1237.51 224.99 1237 226C1235.52 226.495 1235.52 226.495 1234 227C1232.79 229 1232.79 229 1232 231C1231.34 231 1230.68 231 1230 231C1229.91 231.897 1229.91 231.897 1229.81 232.812C1228.66 235.922 1226.88 236.347 1224 238C1219.01 242.064 1219.01 242.064 1214.57 246.695C1212.37 248.52 1210.82 248.4 1208 248.375C1206.7 248.387 1206.7 248.387 1205.38 248.398C1202.57 247.927 1201.73 247.213 1200 245C1199.67 244.34 1199.34 243.68 1199 243C1197.35 243.33 1195.7 243.66 1194 244C1194 244.66 1194 245.32 1194 246C1192.52 246.495 1192.52 246.495 1191 247C1190.34 247.99 1189.68 248.98 1189 250C1187.35 250.712 1185.68 251.374 1184 252C1183.15 252.516 1182.31 253.031 1181.44 253.562C1176.01 256.762 1170.19 256.218 1164.06 256.25C1163.07 256.271 1162.08 256.291 1161.06 256.312C1151.51 256.364 1151.51 256.364 1148 253C1146.86 250.301 1146.86 250.301 1146.19 247.312C1145.84 245.822 1145.84 245.822 1145.48 244.301C1145.32 243.542 1145.16 242.782 1145 242C1143.05 242.195 1143.05 242.195 1141 243C1140.3 244.318 1139.64 245.654 1139 247C1132.37 252.519 1124.81 256.726 1116.02 256.336C1114 256 1114 256 1111.44 254.562C1109.33 250.799 1109.5 247.228 1110 243C1110.33 242.34 1110.66 241.68 1111 241C1112.89 240.473 1112.89 240.473 1115.25 240.062C1120.61 238.959 1123.76 237.27 1127.63 233.312C1130 231 1130 231 1133 231C1133.33 230.01 1133.66 229.02 1134 228C1134.99 228 1135.98 228 1137 228C1137.23 227.381 1137.45 226.762 1137.69 226.125C1139.44 223.291 1140.87 223.09 1144 222C1149.82 219.552 1153.83 216.775 1158 212C1158.5 210.515 1158.5 210.515 1159 209C1159.66 209 1160.32 209 1161 209C1161 208.01 1161 207.02 1161 206C1162.4 204.457 1162.4 204.457 1164.38 202.813C1165.1 202.207 1165.82 201.601 1166.57 200.977C1167.37 200.324 1168.17 199.672 1169 199C1170.3 197.929 1170.3 197.929 1171.62 196.836C1181.63 188.665 1181.63 188.665 1189 189C1189 189.66 1189 190.32 1189 191C1189.99 191 1190.98 191 1192 191C1193.7 201.826 1193.7 201.826 1191.54 205.457C1190.59 206.623 1190.59 206.623 1189.63 207.813C1189 208.603 1188.37 209.393 1187.73 210.207C1186.87 211.095 1186.87 211.095 1186 212C1185.34 212 1184.68 212 1184 212C1184 212.99 1184 213.98 1184 215C1183.34 215 1182.68 215 1182 215C1182 215.66 1182 216.32 1182 217C1180.35 218.021 1178.68 219.016 1177 220C1175.92 220.879 1174.86 221.775 1173.81 222.688C1171 225 1171 225 1169 225C1168.67 225.99 1168.34 226.98 1168 228C1167.34 228 1166.68 228 1166 228C1165.88 228.722 1165.75 229.444 1165.63 230.188C1165.01 232.957 1164.12 235.397 1163 238C1167.06 238.774 1170.86 239.098 1175 239C1175.33 238.01 1175.66 237.02 1176 236C1179.07 234.087 1182.11 232.422 1185.38 230.875C1187.19 230.098 1187.19 230.098 1188 228C1188.66 228 1189.32 228 1190 228C1190 227.34 1190 226.68 1190 226C1191.65 224.966 1193.32 223.972 1195 223C1197.78 220.918 1200.2 218.798 1202.63 216.312C1205 214 1205 214 1208 213C1208 212.01 1208 211.02 1208 210C1208.99 209.505 1208.99 209.505 1210 209C1210.93 207.422 1211.85 205.838 1212.73 204.234C1214.79 200.62 1217.07 197.147 1219.32 193.648C1220.44 191.875 1221.53 190.073 1222.57 188.246C1225.59 183.513 1231.5 182.544 1236.25 185.313Z"/>
<path d="M810.32 216.863C812 218 812 218 813 221C813.238 223.34 813.238 223.34 813.313 225.937C813.369 227.219 813.369 227.219 813.426 228.527C812.864 231.788 811.352 232.735 809 235C807.682 237.784 807.682 237.784 806.75 240.75C806.415 241.735 806.08 242.72 805.734 243.734C805.492 244.482 805.25 245.23 805 246C809.527 245.23 812.4 243.946 816 241C816.648 238.429 816.648 238.429 817 236C817.909 235.662 817.909 235.662 818.836 235.316C822.149 233.301 822.798 230.071 824 226.562C826.938 218.031 826.938 218.031 831 216C833.737 215.625 836.22 215.861 839 216C841.745 220.428 843.485 223.719 844 229C844.804 228.299 845.609 227.597 846.438 226.875C847.618 225.908 848.806 224.951 850 224C850.688 223.45 851.377 222.899 852.086 222.332C856.665 218.95 860.144 217.121 865.918 217.535C869.253 218.28 871.457 219.774 874 222C874.922 224.766 875.118 226.383 875.098 229.23C875.093 230.434 875.093 230.434 875.088 231.662C875.075 232.912 875.075 232.912 875.063 234.187C875.058 235.032 875.053 235.877 875.049 236.748C875.037 238.832 875.019 240.916 875 243C875.662 243.134 876.323 243.268 877.005 243.407C883.625 244.75 883.625 244.75 887 247C888.328 249.592 888.978 252.085 889 255C886.862 257.791 885.135 259.433 882 261C878.926 261.368 875.843 261.417 872.75 261.5C871.903 261.554 871.056 261.608 870.184 261.664C866.62 261.742 864.047 261.731 861.066 259.65C858.227 256.646 857.098 254.592 856.414 250.473C856.484 249.347 856.553 248.222 856.625 247.062C856.706 245.347 856.706 245.347 856.789 243.598C856.859 242.74 856.928 241.883 857 241C856.402 241.66 855.804 242.32 855.188 243C853 245 853 245 850 245C849.629 245.866 849.629 245.866 849.25 246.75C847.834 249.299 846.053 250.947 844 253C843.67 253.99 843.34 254.98 843 256C841.333 257 839.667 258 838 259C837.67 259.99 837.34 260.98 837 262C836.34 262 835.68 262 835 262C834.918 262.557 834.835 263.114 834.75 263.687C833.764 266.728 832.114 268.63 830 271C827.674 272.163 826.213 272.166 823.625 272.187C822.854 272.202 822.083 272.216 821.289 272.23C818.742 271.974 817.167 271.344 815 270C813.309 267.379 813 266.174 813 263C812.143 263.095 811.286 263.191 810.402 263.289C804.069 263.903 798.964 264.358 793 262C793 261.34 793 260.68 793 260C792.357 260.433 791.714 260.866 791.051 261.312C783.654 265.871 777.642 267.316 769 266C765.03 264.77 762.133 263.023 759.063 260.25C756.128 254.036 756.91 249.049 759.016 242.785C760 241 760 241 763 240C763.733 237.985 763.733 237.985 764 236C764.99 236 765.98 236 767 236C767 235.01 767 234.02 767 233C767.66 232.67 768.32 232.34 769 232C769.66 231.01 770.32 230.02 771 229C771.66 229.33 772.32 229.66 773 230C773 229.34 773 228.68 773 228C773.66 228 774.32 228 775 228C775 227.01 775 226.02 775 225C776.32 224.67 777.64 224.34 779 224C779 222.68 779 221.36 779 220C780.98 220 782.96 220 785 220C785 219.34 785 218.68 785 218C793.173 214.734 801.889 213.726 810.32 216.863ZM787 238C784.96 239.363 784.96 239.363 783 241C783 241.66 783 242.32 783 243C782.01 243 781.02 243 780 243C778.271 244.313 778.271 244.313 777 246C777 246.66 777 247.32 777 248C776.01 248.495 776.01 248.495 775 249C776.65 248.67 778.3 248.34 780 248C780 247.34 780 246.68 780 246C780.866 245.907 780.866 245.907 781.75 245.812C784.887 244.68 786.092 242.658 788 240C787.67 239.34 787.34 238.68 787 238Z"/>
<path d="M776 181.437C776.699 181.427 777.397 181.416 778.117 181.404C781.751 181.456 783.883 181.927 786.98 183.863C789 186 789 186 789.312 188.75C789.209 189.493 789.106 190.235 789 191C789.99 191 790.98 191 792 191C792.027 192.458 792.046 193.917 792.062 195.375C792.074 196.187 792.086 196.999 792.098 197.836C792 200 792 200 791 202C790.34 202 789.68 202 789 202C789 202.66 789 203.32 789 204C777.35 205.435 777.35 205.435 772.312 203.812C769.918 201.935 769.223 200.708 768 198C766 196.791 766 196.791 764 196C762.172 194.172 762.654 191.647 762.477 189.203C764.129 182.246 769.758 181.224 776 181.437Z"/>
<path d="M1335 216C1336.42 215.946 1337.83 215.907 1339.25 215.875C1340.04 215.852 1340.83 215.829 1341.64 215.805C1344.26 216.021 1345.81 216.555 1348 218C1348.75 220.625 1348.75 220.625 1349 223C1349.99 223 1350.98 223 1352 223C1351.67 225.31 1351.34 227.62 1351 230C1350.1 230.124 1350.1 230.124 1349.19 230.25C1346.38 231.213 1345.72 232.634 1344 235C1340.51 237.492 1337.18 237.448 1333 237C1330.56 235.688 1330.56 235.688 1329 233C1328.68 229.309 1328.77 225.695 1329 222C1329.62 221.752 1330.24 221.505 1330.87 221.25C1333.35 219.794 1333.95 218.622 1335 216Z"/>
<path d="M1204 211C1204.66 211 1205.32 211 1206 211C1205.67 211.99 1205.34 212.98 1205 214C1204.34 213.34 1203.68 212.68 1203 212C1203.33 211.67 1203.66 211.34 1204 211Z"/>
</svg>
